<svg width="118" height="156" viewBox="0 0 118 156" fill="none" xmlns="http://www.w3.org/2000/svg">
<path d="M5.13041 153.429C5.13041 152.008 3.98193 150.857 2.56521 150.857C1.14848 150.857 0 152.008 0 153.429C0 154.849 1.14848 156 2.56521 156C3.98193 156 5.13041 154.849 5.13041 153.429Z" fill="#D0D0D0"/>
<path d="M5.13041 153.429C5.13041 152.008 3.98193 150.857 2.56521 150.857C1.14848 150.857 0 152.008 0 153.429C0 154.849 1.14848 156 2.56521 156C3.98193 156 5.13041 154.849 5.13041 153.429Z" fill="#08BDC9"/>
<path d="M5.13041 153.429C5.13041 152.008 3.98193 150.857 2.56521 150.857C1.14848 150.857 0 152.008 0 153.429C0 154.849 1.14848 156 2.56521 156C3.98193 156 5.13041 154.849 5.13041 153.429Z" fill="url(#paint0_linear_12_267)"/>
<path d="M5.13041 153.429C5.13041 152.008 3.98193 150.857 2.56521 150.857C1.14848 150.857 0 152.008 0 153.429C0 154.849 1.14848 156 2.56521 156C3.98193 156 5.13041 154.849 5.13041 153.429Z" fill="#F6F6F6"/>
<path d="M42.7538 153.429C42.7538 152.008 41.6053 150.857 40.1886 150.857C38.7719 150.857 37.6234 152.008 37.6234 153.429C37.6234 154.849 38.7719 156 40.1886 156C41.6053 156 42.7538 154.849 42.7538 153.429Z" fill="#D0D0D0"/>
<path d="M42.7538 153.429C42.7538 152.008 41.6053 150.857 40.1886 150.857C38.7719 150.857 37.6234 152.008 37.6234 153.429C37.6234 154.849 38.7719 156 40.1886 156C41.6053 156 42.7538 154.849 42.7538 153.429Z" fill="#08BDC9"/>
<path d="M42.7538 153.429C42.7538 152.008 41.6053 150.857 40.1886 150.857C38.7719 150.857 37.6234 152.008 37.6234 153.429C37.6234 154.849 38.7719 156 40.1886 156C41.6053 156 42.7538 154.849 42.7538 153.429Z" fill="url(#paint1_linear_12_267)"/>
<path d="M42.7538 153.429C42.7538 152.008 41.6053 150.857 40.1886 150.857C38.7719 150.857 37.6234 152.008 37.6234 153.429C37.6234 154.849 38.7719 156 40.1886 156C41.6053 156 42.7538 154.849 42.7538 153.429Z" fill="#F6F6F6"/>
<path d="M80.3766 153.429C80.3766 152.008 79.2281 150.857 77.8114 150.857C76.3947 150.857 75.2462 152.008 75.2462 153.429C75.2462 154.849 76.3947 156 77.8114 156C79.2281 156 80.3766 154.849 80.3766 153.429Z" fill="#D0D0D0"/>
<path d="M80.3766 153.429C80.3766 152.008 79.2281 150.857 77.8114 150.857C76.3947 150.857 75.2462 152.008 75.2462 153.429C75.2462 154.849 76.3947 156 77.8114 156C79.2281 156 80.3766 154.849 80.3766 153.429Z" fill="#08BDC9"/>
<path d="M80.3766 153.429C80.3766 152.008 79.2281 150.857 77.8114 150.857C76.3947 150.857 75.2462 152.008 75.2462 153.429C75.2462 154.849 76.3947 156 77.8114 156C79.2281 156 80.3766 154.849 80.3766 153.429Z" fill="url(#paint2_linear_12_267)"/>
<path d="M80.3766 153.429C80.3766 152.008 79.2281 150.857 77.8114 150.857C76.3947 150.857 75.2462 152.008 75.2462 153.429C75.2462 154.849 76.3947 156 77.8114 156C79.2281 156 80.3766 154.849 80.3766 153.429Z" fill="#F6F6F6"/>
<path d="M118 153.429C118 152.008 116.852 150.857 115.435 150.857C114.018 150.857 112.87 152.008 112.87 153.429C112.87 154.849 114.018 156 115.435 156C116.852 156 118 154.849 118 153.429Z" fill="#D0D0D0"/>
<path d="M118 153.429C118 152.008 116.852 150.857 115.435 150.857C114.018 150.857 112.87 152.008 112.87 153.429C112.87 154.849 114.018 156 115.435 156C116.852 156 118 154.849 118 153.429Z" fill="#08BDC9"/>
<path d="M118 153.429C118 152.008 116.852 150.857 115.435 150.857C114.018 150.857 112.87 152.008 112.87 153.429C112.87 154.849 114.018 156 115.435 156C116.852 156 118 154.849 118 153.429Z" fill="url(#paint3_linear_12_267)"/>
<path d="M118 153.429C118 152.008 116.852 150.857 115.435 150.857C114.018 150.857 112.87 152.008 112.87 153.429C112.87 154.849 114.018 156 115.435 156C116.852 156 118 154.849 118 153.429Z" fill="#F6F6F6"/>
<path d="M5.13041 115.714C5.13041 114.294 3.98193 113.143 2.56521 113.143C1.14848 113.143 0 114.294 0 115.714C0 117.134 1.14848 118.286 2.56521 118.286C3.98193 118.286 5.13041 117.134 5.13041 115.714Z" fill="#D0D0D0"/>
<path d="M5.13041 115.714C5.13041 114.294 3.98193 113.143 2.56521 113.143C1.14848 113.143 0 114.294 0 115.714C0 117.134 1.14848 118.286 2.56521 118.286C3.98193 118.286 5.13041 117.134 5.13041 115.714Z" fill="#08BDC9"/>
<path d="M5.13041 115.714C5.13041 114.294 3.98193 113.143 2.56521 113.143C1.14848 113.143 0 114.294 0 115.714C0 117.134 1.14848 118.286 2.56521 118.286C3.98193 118.286 5.13041 117.134 5.13041 115.714Z" fill="url(#paint4_linear_12_267)"/>
<path d="M5.13041 115.714C5.13041 114.294 3.98193 113.143 2.56521 113.143C1.14848 113.143 0 114.294 0 115.714C0 117.134 1.14848 118.286 2.56521 118.286C3.98193 118.286 5.13041 117.134 5.13041 115.714Z" fill="#F6F6F6"/>
<path d="M42.7538 115.714C42.7538 114.294 41.6053 113.143 40.1886 113.143C38.7719 113.143 37.6234 114.294 37.6234 115.714C37.6234 117.134 38.7719 118.286 40.1886 118.286C41.6053 118.286 42.7538 117.134 42.7538 115.714Z" fill="#D0D0D0"/>
<path d="M42.7538 115.714C42.7538 114.294 41.6053 113.143 40.1886 113.143C38.7719 113.143 37.6234 114.294 37.6234 115.714C37.6234 117.134 38.7719 118.286 40.1886 118.286C41.6053 118.286 42.7538 117.134 42.7538 115.714Z" fill="#08BDC9"/>
<path d="M42.7538 115.714C42.7538 114.294 41.6053 113.143 40.1886 113.143C38.7719 113.143 37.6234 114.294 37.6234 115.714C37.6234 117.134 38.7719 118.286 40.1886 118.286C41.6053 118.286 42.7538 117.134 42.7538 115.714Z" fill="url(#paint5_linear_12_267)"/>
<path d="M42.7538 115.714C42.7538 114.294 41.6053 113.143 40.1886 113.143C38.7719 113.143 37.6234 114.294 37.6234 115.714C37.6234 117.134 38.7719 118.286 40.1886 118.286C41.6053 118.286 42.7538 117.134 42.7538 115.714Z" fill="#F6F6F6"/>
<path d="M80.3766 115.714C80.3766 114.294 79.2281 113.143 77.8114 113.143C76.3947 113.143 75.2462 114.294 75.2462 115.714C75.2462 117.134 76.3947 118.286 77.8114 118.286C79.2281 118.286 80.3766 117.134 80.3766 115.714Z" fill="#D0D0D0"/>
<path d="M80.3766 115.714C80.3766 114.294 79.2281 113.143 77.8114 113.143C76.3947 113.143 75.2462 114.294 75.2462 115.714C75.2462 117.134 76.3947 118.286 77.8114 118.286C79.2281 118.286 80.3766 117.134 80.3766 115.714Z" fill="#08BDC9"/>
<path d="M80.3766 115.714C80.3766 114.294 79.2281 113.143 77.8114 113.143C76.3947 113.143 75.2462 114.294 75.2462 115.714C75.2462 117.134 76.3947 118.286 77.8114 118.286C79.2281 118.286 80.3766 117.134 80.3766 115.714Z" fill="url(#paint6_linear_12_267)"/>
<path d="M80.3766 115.714C80.3766 114.294 79.2281 113.143 77.8114 113.143C76.3947 113.143 75.2462 114.294 75.2462 115.714C75.2462 117.134 76.3947 118.286 77.8114 118.286C79.2281 118.286 80.3766 117.134 80.3766 115.714Z" fill="#F6F6F6"/>
<path d="M118 115.714C118 114.294 116.852 113.143 115.435 113.143C114.018 113.143 112.87 114.294 112.87 115.714C112.87 117.134 114.018 118.286 115.435 118.286C116.852 118.286 118 117.134 118 115.714Z" fill="#D0D0D0"/>
<path d="M118 115.714C118 114.294 116.852 113.143 115.435 113.143C114.018 113.143 112.87 114.294 112.87 115.714C112.87 117.134 114.018 118.286 115.435 118.286C116.852 118.286 118 117.134 118 115.714Z" fill="#08BDC9"/>
<path d="M118 115.714C118 114.294 116.852 113.143 115.435 113.143C114.018 113.143 112.87 114.294 112.87 115.714C112.87 117.134 114.018 118.286 115.435 118.286C116.852 118.286 118 117.134 118 115.714Z" fill="url(#paint7_linear_12_267)"/>
<path d="M118 115.714C118 114.294 116.852 113.143 115.435 113.143C114.018 113.143 112.87 114.294 112.87 115.714C112.87 117.134 114.018 118.286 115.435 118.286C116.852 118.286 118 117.134 118 115.714Z" fill="#F6F6F6"/>
<path d="M5.13041 78C5.13041 76.5799 3.98193 75.4286 2.56521 75.4286C1.14848 75.4286 0 76.5799 0 78C0 79.4202 1.14848 80.5715 2.56521 80.5715C3.98193 80.5715 5.13041 79.4202 5.13041 78Z" fill="#D0D0D0"/>
<path d="M5.13041 78C5.13041 76.5799 3.98193 75.4286 2.56521 75.4286C1.14848 75.4286 0 76.5799 0 78C0 79.4202 1.14848 80.5715 2.56521 80.5715C3.98193 80.5715 5.13041 79.4202 5.13041 78Z" fill="#08BDC9"/>
<path d="M5.13041 78C5.13041 76.5799 3.98193 75.4286 2.56521 75.4286C1.14848 75.4286 0 76.5799 0 78C0 79.4202 1.14848 80.5715 2.56521 80.5715C3.98193 80.5715 5.13041 79.4202 5.13041 78Z" fill="url(#paint8_linear_12_267)"/>
<path d="M5.13041 78C5.13041 76.5799 3.98193 75.4286 2.56521 75.4286C1.14848 75.4286 0 76.5799 0 78C0 79.4202 1.14848 80.5715 2.56521 80.5715C3.98193 80.5715 5.13041 79.4202 5.13041 78Z" fill="#F6F6F6"/>
<path d="M42.7538 78C42.7538 76.5799 41.6053 75.4286 40.1886 75.4286C38.7719 75.4286 37.6234 76.5799 37.6234 78C37.6234 79.4202 38.7719 80.5715 40.1886 80.5715C41.6053 80.5715 42.7538 79.4202 42.7538 78Z" fill="#D0D0D0"/>
<path d="M42.7538 78C42.7538 76.5799 41.6053 75.4286 40.1886 75.4286C38.7719 75.4286 37.6234 76.5799 37.6234 78C37.6234 79.4202 38.7719 80.5715 40.1886 80.5715C41.6053 80.5715 42.7538 79.4202 42.7538 78Z" fill="#08BDC9"/>
<path d="M42.7538 78C42.7538 76.5799 41.6053 75.4286 40.1886 75.4286C38.7719 75.4286 37.6234 76.5799 37.6234 78C37.6234 79.4202 38.7719 80.5715 40.1886 80.5715C41.6053 80.5715 42.7538 79.4202 42.7538 78Z" fill="url(#paint9_linear_12_267)"/>
<path d="M42.7538 78C42.7538 76.5799 41.6053 75.4286 40.1886 75.4286C38.7719 75.4286 37.6234 76.5799 37.6234 78C37.6234 79.4202 38.7719 80.5715 40.1886 80.5715C41.6053 80.5715 42.7538 79.4202 42.7538 78Z" fill="#F6F6F6"/>
<path d="M80.3766 78C80.3766 76.5799 79.2281 75.4286 77.8114 75.4286C76.3947 75.4286 75.2462 76.5799 75.2462 78C75.2462 79.4202 76.3947 80.5715 77.8114 80.5715C79.2281 80.5715 80.3766 79.4202 80.3766 78Z" fill="#D0D0D0"/>
<path d="M80.3766 78C80.3766 76.5799 79.2281 75.4286 77.8114 75.4286C76.3947 75.4286 75.2462 76.5799 75.2462 78C75.2462 79.4202 76.3947 80.5715 77.8114 80.5715C79.2281 80.5715 80.3766 79.4202 80.3766 78Z" fill="#08BDC9"/>
<path d="M80.3766 78C80.3766 76.5799 79.2281 75.4286 77.8114 75.4286C76.3947 75.4286 75.2462 76.5799 75.2462 78C75.2462 79.4202 76.3947 80.5715 77.8114 80.5715C79.2281 80.5715 80.3766 79.4202 80.3766 78Z" fill="url(#paint10_linear_12_267)"/>
<path d="M80.3766 78C80.3766 76.5799 79.2281 75.4286 77.8114 75.4286C76.3947 75.4286 75.2462 76.5799 75.2462 78C75.2462 79.4202 76.3947 80.5715 77.8114 80.5715C79.2281 80.5715 80.3766 79.4202 80.3766 78Z" fill="#F6F6F6"/>
<path d="M118 78C118 76.5799 116.852 75.4286 115.435 75.4286C114.018 75.4286 112.87 76.5799 112.87 78C112.87 79.4202 114.018 80.5715 115.435 80.5715C116.852 80.5715 118 79.4202 118 78Z" fill="#D0D0D0"/>
<path d="M118 78C118 76.5799 116.852 75.4286 115.435 75.4286C114.018 75.4286 112.87 76.5799 112.87 78C112.87 79.4202 114.018 80.5715 115.435 80.5715C116.852 80.5715 118 79.4202 118 78Z" fill="#08BDC9"/>
<path d="M118 78C118 76.5799 116.852 75.4286 115.435 75.4286C114.018 75.4286 112.87 76.5799 112.87 78C112.87 79.4202 114.018 80.5715 115.435 80.5715C116.852 80.5715 118 79.4202 118 78Z" fill="url(#paint11_linear_12_267)"/>
<path d="M118 78C118 76.5799 116.852 75.4286 115.435 75.4286C114.018 75.4286 112.87 76.5799 112.87 78C112.87 79.4202 114.018 80.5715 115.435 80.5715C116.852 80.5715 118 79.4202 118 78Z" fill="#F6F6F6"/>
<path d="M5.13041 40.2857C5.13041 38.8655 3.98193 37.7143 2.56521 37.7143C1.14848 37.7143 0 38.8655 0 40.2857C0 41.7059 1.14848 42.8571 2.56521 42.8571C3.98193 42.8571 5.13041 41.7059 5.13041 40.2857Z" fill="#17AEE0"/>
<path d="M42.7538 40.2857C42.7538 38.8655 41.6053 37.7143 40.1886 37.7143C38.7719 37.7143 37.6234 38.8655 37.6234 40.2857C37.6234 41.7059 38.7719 42.8571 40.1886 42.8571C41.6053 42.8571 42.7538 41.7059 42.7538 40.2857Z" fill="#17AEE0"/>
<path d="M80.3766 40.2857C80.3766 38.8655 79.2281 37.7143 77.8114 37.7143C76.3947 37.7143 75.2462 38.8655 75.2462 40.2857C75.2462 41.7059 76.3947 42.8571 77.8114 42.8571C79.2281 42.8571 80.3766 41.7059 80.3766 40.2857Z" fill="#17AEE0"/>
<path d="M118 40.2857C118 38.8655 116.852 37.7143 115.435 37.7143C114.018 37.7143 112.87 38.8655 112.87 40.2857C112.87 41.7059 114.018 42.8571 115.435 42.8571C116.852 42.8571 118 41.7059 118 40.2857Z" fill="#17AEE0"/>
<path d="M5.13041 2.57143C5.13041 1.15126 3.98193 0 2.56521 0C1.14848 0 0 1.15126 0 2.57143C0 3.99159 1.14848 5.14285 2.56521 5.14285C3.98193 5.14285 5.13041 3.99159 5.13041 2.57143Z" fill="#17AEE0"/>
<path d="M42.7538 2.57143C42.7538 1.15126 41.6053 0 40.1886 0C38.7719 0 37.6234 1.15126 37.6234 2.57143C37.6234 3.99159 38.7719 5.14285 40.1886 5.14285C41.6053 5.14285 42.7538 3.99159 42.7538 2.57143Z" fill="#17AEE0"/>
<path d="M80.3766 2.57143C80.3766 1.15126 79.2281 0 77.8114 0C76.3947 0 75.2462 1.15126 75.2462 2.57143C75.2462 3.99159 76.3947 5.14285 77.8114 5.14285C79.2281 5.14285 80.3766 3.99159 80.3766 2.57143Z" fill="#17AEE0"/>
<path d="M118 2.57143C118 1.15126 116.852 0 115.435 0C114.018 0 112.87 1.15126 112.87 2.57143C112.87 3.99159 114.018 5.14285 115.435 5.14285C116.852 5.14285 118 3.99159 118 2.57143Z" fill="#17AEE0"/>
<defs>
<linearGradient id="paint0_linear_12_267" x1="46.411" y1="-72.9132" x2="196.476" y2="18.7992" gradientUnits="userSpaceOnUse">
<stop stop-color="#9358F7"/>
<stop offset="0.259732" stop-color="#7B78F2"/>
<stop offset="0.500607" stop-color="#6197EE"/>
<stop offset="0.766547" stop-color="#45B5E9"/>
<stop offset="1" stop-color="#10D7E2"/>
</linearGradient>
<linearGradient id="paint1_linear_12_267" x1="46.411" y1="-72.9132" x2="196.476" y2="18.7992" gradientUnits="userSpaceOnUse">
<stop stop-color="#9358F7"/>
<stop offset="0.259732" stop-color="#7B78F2"/>
<stop offset="0.500607" stop-color="#6197EE"/>
<stop offset="0.766547" stop-color="#45B5E9"/>
<stop offset="1" stop-color="#10D7E2"/>
</linearGradient>
<linearGradient id="paint2_linear_12_267" x1="46.411" y1="-72.9132" x2="196.476" y2="18.7992" gradientUnits="userSpaceOnUse">
<stop stop-color="#9358F7"/>
<stop offset="0.259732" stop-color="#7B78F2"/>
<stop offset="0.500607" stop-color="#6197EE"/>
<stop offset="0.766547" stop-color="#45B5E9"/>
<stop offset="1" stop-color="#10D7E2"/>
</linearGradient>
<linearGradient id="paint3_linear_12_267" x1="46.411" y1="-72.9132" x2="196.476" y2="18.7992" gradientUnits="userSpaceOnUse">
<stop stop-color="#9358F7"/>
<stop offset="0.259732" stop-color="#7B78F2"/>
<stop offset="0.500607" stop-color="#6197EE"/>
<stop offset="0.766547" stop-color="#45B5E9"/>
<stop offset="1" stop-color="#10D7E2"/>
</linearGradient>
<linearGradient id="paint4_linear_12_267" x1="46.411" y1="-72.9132" x2="196.476" y2="18.7992" gradientUnits="userSpaceOnUse">
<stop stop-color="#9358F7"/>
<stop offset="0.259732" stop-color="#7B78F2"/>
<stop offset="0.500607" stop-color="#6197EE"/>
<stop offset="0.766547" stop-color="#45B5E9"/>
<stop offset="1" stop-color="#10D7E2"/>
</linearGradient>
<linearGradient id="paint5_linear_12_267" x1="46.411" y1="-72.9132" x2="196.476" y2="18.7992" gradientUnits="userSpaceOnUse">
<stop stop-color="#9358F7"/>
<stop offset="0.259732" stop-color="#7B78F2"/>
<stop offset="0.500607" stop-color="#6197EE"/>
<stop offset="0.766547" stop-color="#45B5E9"/>
<stop offset="1" stop-color="#10D7E2"/>
</linearGradient>
<linearGradient id="paint6_linear_12_267" x1="46.411" y1="-72.9132" x2="196.476" y2="18.7992" gradientUnits="userSpaceOnUse">
<stop stop-color="#9358F7"/>
<stop offset="0.259732" stop-color="#7B78F2"/>
<stop offset="0.500607" stop-color="#6197EE"/>
<stop offset="0.766547" stop-color="#45B5E9"/>
<stop offset="1" stop-color="#10D7E2"/>
</linearGradient>
<linearGradient id="paint7_linear_12_267" x1="46.411" y1="-72.9132" x2="196.476" y2="18.7992" gradientUnits="userSpaceOnUse">
<stop stop-color="#9358F7"/>
<stop offset="0.259732" stop-color="#7B78F2"/>
<stop offset="0.500607" stop-color="#6197EE"/>
<stop offset="0.766547" stop-color="#45B5E9"/>
<stop offset="1" stop-color="#10D7E2"/>
</linearGradient>
<linearGradient id="paint8_linear_12_267" x1="46.411" y1="-72.9132" x2="196.476" y2="18.7992" gradientUnits="userSpaceOnUse">
<stop stop-color="#9358F7"/>
<stop offset="0.259732" stop-color="#7B78F2"/>
<stop offset="0.500607" stop-color="#6197EE"/>
<stop offset="0.766547" stop-color="#45B5E9"/>
<stop offset="1" stop-color="#10D7E2"/>
</linearGradient>
<linearGradient id="paint9_linear_12_267" x1="46.411" y1="-72.9132" x2="196.476" y2="18.7992" gradientUnits="userSpaceOnUse">
<stop stop-color="#9358F7"/>
<stop offset="0.259732" stop-color="#7B78F2"/>
<stop offset="0.500607" stop-color="#6197EE"/>
<stop offset="0.766547" stop-color="#45B5E9"/>
<stop offset="1" stop-color="#10D7E2"/>
</linearGradient>
<linearGradient id="paint10_linear_12_267" x1="46.411" y1="-72.9132" x2="196.476" y2="18.7992" gradientUnits="userSpaceOnUse">
<stop stop-color="#9358F7"/>
<stop offset="0.259732" stop-color="#7B78F2"/>
<stop offset="0.500607" stop-color="#6197EE"/>
<stop offset="0.766547" stop-color="#45B5E9"/>
<stop offset="1" stop-color="#10D7E2"/>
</linearGradient>
<linearGradient id="paint11_linear_12_267" x1="46.411" y1="-72.9132" x2="196.476" y2="18.7992" gradientUnits="userSpaceOnUse">
<stop stop-color="#9358F7"/>
<stop offset="0.259732" stop-color="#7B78F2"/>
<stop offset="0.500607" stop-color="#6197EE"/>
<stop offset="0.766547" stop-color="#45B5E9"/>
<stop offset="1" stop-color="#10D7E2"/>
</linearGradient>
</defs>
</svg>
