<svg width="118" height="156" viewBox="0 0 118 156" fill="none" xmlns="http://www.w3.org/2000/svg">
<path d="M5.13041 2.57143C5.13041 3.99159 3.98193 5.14286 2.56521 5.14286C1.14848 5.14286 0 3.99159 0 2.57143C0 1.15127 1.14848 0 2.56521 0C3.98193 0 5.13041 1.15127 5.13041 2.57143Z" fill="#D0D0D0"/>
<path d="M5.13041 2.57143C5.13041 3.99159 3.98193 5.14286 2.56521 5.14286C1.14848 5.14286 0 3.99159 0 2.57143C0 1.15127 1.14848 0 2.56521 0C3.98193 0 5.13041 1.15127 5.13041 2.57143Z" fill="#08BDC9"/>
<path d="M5.13041 2.57143C5.13041 3.99159 3.98193 5.14286 2.56521 5.14286C1.14848 5.14286 0 3.99159 0 2.57143C0 1.15127 1.14848 0 2.56521 0C3.98193 0 5.13041 1.15127 5.13041 2.57143Z" fill="url(#paint0_linear_20_314)"/>
<path d="M5.13041 2.57143C5.13041 3.99159 3.98193 5.14286 2.56521 5.14286C1.14848 5.14286 0 3.99159 0 2.57143C0 1.15127 1.14848 0 2.56521 0C3.98193 0 5.13041 1.15127 5.13041 2.57143Z" fill="#F6F6F6"/>
<path d="M42.7538 2.57143C42.7538 3.99159 41.6053 5.14286 40.1886 5.14286C38.7719 5.14286 37.6234 3.99159 37.6234 2.57143C37.6234 1.15127 38.7719 0 40.1886 0C41.6053 0 42.7538 1.15127 42.7538 2.57143Z" fill="#D0D0D0"/>
<path d="M42.7538 2.57143C42.7538 3.99159 41.6053 5.14286 40.1886 5.14286C38.7719 5.14286 37.6234 3.99159 37.6234 2.57143C37.6234 1.15127 38.7719 0 40.1886 0C41.6053 0 42.7538 1.15127 42.7538 2.57143Z" fill="#08BDC9"/>
<path d="M42.7538 2.57143C42.7538 3.99159 41.6053 5.14286 40.1886 5.14286C38.7719 5.14286 37.6234 3.99159 37.6234 2.57143C37.6234 1.15127 38.7719 0 40.1886 0C41.6053 0 42.7538 1.15127 42.7538 2.57143Z" fill="url(#paint1_linear_20_314)"/>
<path d="M42.7538 2.57143C42.7538 3.99159 41.6053 5.14286 40.1886 5.14286C38.7719 5.14286 37.6234 3.99159 37.6234 2.57143C37.6234 1.15127 38.7719 0 40.1886 0C41.6053 0 42.7538 1.15127 42.7538 2.57143Z" fill="#F6F6F6"/>
<path d="M80.3766 2.57143C80.3766 3.99159 79.2281 5.14286 77.8114 5.14286C76.3947 5.14286 75.2462 3.99159 75.2462 2.57143C75.2462 1.15127 76.3947 0 77.8114 0C79.2281 0 80.3766 1.15127 80.3766 2.57143Z" fill="#D0D0D0"/>
<path d="M80.3766 2.57143C80.3766 3.99159 79.2281 5.14286 77.8114 5.14286C76.3947 5.14286 75.2462 3.99159 75.2462 2.57143C75.2462 1.15127 76.3947 0 77.8114 0C79.2281 0 80.3766 1.15127 80.3766 2.57143Z" fill="#08BDC9"/>
<path d="M80.3766 2.57143C80.3766 3.99159 79.2281 5.14286 77.8114 5.14286C76.3947 5.14286 75.2462 3.99159 75.2462 2.57143C75.2462 1.15127 76.3947 0 77.8114 0C79.2281 0 80.3766 1.15127 80.3766 2.57143Z" fill="url(#paint2_linear_20_314)"/>
<path d="M80.3766 2.57143C80.3766 3.99159 79.2281 5.14286 77.8114 5.14286C76.3947 5.14286 75.2462 3.99159 75.2462 2.57143C75.2462 1.15127 76.3947 0 77.8114 0C79.2281 0 80.3766 1.15127 80.3766 2.57143Z" fill="#F6F6F6"/>
<path d="M118 2.57143C118 3.99159 116.852 5.14286 115.435 5.14286C114.018 5.14286 112.87 3.99159 112.87 2.57143C112.87 1.15127 114.018 0 115.435 0C116.852 0 118 1.15127 118 2.57143Z" fill="#D0D0D0"/>
<path d="M118 2.57143C118 3.99159 116.852 5.14286 115.435 5.14286C114.018 5.14286 112.87 3.99159 112.87 2.57143C112.87 1.15127 114.018 0 115.435 0C116.852 0 118 1.15127 118 2.57143Z" fill="#08BDC9"/>
<path d="M118 2.57143C118 3.99159 116.852 5.14286 115.435 5.14286C114.018 5.14286 112.87 3.99159 112.87 2.57143C112.87 1.15127 114.018 0 115.435 0C116.852 0 118 1.15127 118 2.57143Z" fill="url(#paint3_linear_20_314)"/>
<path d="M118 2.57143C118 3.99159 116.852 5.14286 115.435 5.14286C114.018 5.14286 112.87 3.99159 112.87 2.57143C112.87 1.15127 114.018 0 115.435 0C116.852 0 118 1.15127 118 2.57143Z" fill="#F6F6F6"/>
<path d="M5.13041 40.2857C5.13041 41.7058 3.98193 42.8571 2.56521 42.8571C1.14848 42.8571 0 41.7058 0 40.2857C0 38.8655 1.14848 37.7142 2.56521 37.7142C3.98193 37.7142 5.13041 38.8655 5.13041 40.2857Z" fill="#D0D0D0"/>
<path d="M5.13041 40.2857C5.13041 41.7058 3.98193 42.8571 2.56521 42.8571C1.14848 42.8571 0 41.7058 0 40.2857C0 38.8655 1.14848 37.7142 2.56521 37.7142C3.98193 37.7142 5.13041 38.8655 5.13041 40.2857Z" fill="#08BDC9"/>
<path d="M5.13041 40.2857C5.13041 41.7058 3.98193 42.8571 2.56521 42.8571C1.14848 42.8571 0 41.7058 0 40.2857C0 38.8655 1.14848 37.7142 2.56521 37.7142C3.98193 37.7142 5.13041 38.8655 5.13041 40.2857Z" fill="url(#paint4_linear_20_314)"/>
<path d="M5.13041 40.2857C5.13041 41.7058 3.98193 42.8571 2.56521 42.8571C1.14848 42.8571 0 41.7058 0 40.2857C0 38.8655 1.14848 37.7142 2.56521 37.7142C3.98193 37.7142 5.13041 38.8655 5.13041 40.2857Z" fill="#F6F6F6"/>
<path d="M42.7538 40.2857C42.7538 41.7058 41.6053 42.8571 40.1886 42.8571C38.7719 42.8571 37.6234 41.7058 37.6234 40.2857C37.6234 38.8655 38.7719 37.7142 40.1886 37.7142C41.6053 37.7142 42.7538 38.8655 42.7538 40.2857Z" fill="#D0D0D0"/>
<path d="M42.7538 40.2857C42.7538 41.7058 41.6053 42.8571 40.1886 42.8571C38.7719 42.8571 37.6234 41.7058 37.6234 40.2857C37.6234 38.8655 38.7719 37.7142 40.1886 37.7142C41.6053 37.7142 42.7538 38.8655 42.7538 40.2857Z" fill="#08BDC9"/>
<path d="M42.7538 40.2857C42.7538 41.7058 41.6053 42.8571 40.1886 42.8571C38.7719 42.8571 37.6234 41.7058 37.6234 40.2857C37.6234 38.8655 38.7719 37.7142 40.1886 37.7142C41.6053 37.7142 42.7538 38.8655 42.7538 40.2857Z" fill="url(#paint5_linear_20_314)"/>
<path d="M42.7538 40.2857C42.7538 41.7058 41.6053 42.8571 40.1886 42.8571C38.7719 42.8571 37.6234 41.7058 37.6234 40.2857C37.6234 38.8655 38.7719 37.7142 40.1886 37.7142C41.6053 37.7142 42.7538 38.8655 42.7538 40.2857Z" fill="#F6F6F6"/>
<path d="M80.3766 40.2857C80.3766 41.7058 79.2281 42.8571 77.8114 42.8571C76.3947 42.8571 75.2462 41.7058 75.2462 40.2857C75.2462 38.8655 76.3947 37.7142 77.8114 37.7142C79.2281 37.7142 80.3766 38.8655 80.3766 40.2857Z" fill="#D0D0D0"/>
<path d="M80.3766 40.2857C80.3766 41.7058 79.2281 42.8571 77.8114 42.8571C76.3947 42.8571 75.2462 41.7058 75.2462 40.2857C75.2462 38.8655 76.3947 37.7142 77.8114 37.7142C79.2281 37.7142 80.3766 38.8655 80.3766 40.2857Z" fill="#08BDC9"/>
<path d="M80.3766 40.2857C80.3766 41.7058 79.2281 42.8571 77.8114 42.8571C76.3947 42.8571 75.2462 41.7058 75.2462 40.2857C75.2462 38.8655 76.3947 37.7142 77.8114 37.7142C79.2281 37.7142 80.3766 38.8655 80.3766 40.2857Z" fill="url(#paint6_linear_20_314)"/>
<path d="M80.3766 40.2857C80.3766 41.7058 79.2281 42.8571 77.8114 42.8571C76.3947 42.8571 75.2462 41.7058 75.2462 40.2857C75.2462 38.8655 76.3947 37.7142 77.8114 37.7142C79.2281 37.7142 80.3766 38.8655 80.3766 40.2857Z" fill="#F6F6F6"/>
<path d="M118 40.2857C118 41.7058 116.852 42.8571 115.435 42.8571C114.018 42.8571 112.87 41.7058 112.87 40.2857C112.87 38.8655 114.018 37.7142 115.435 37.7142C116.852 37.7142 118 38.8655 118 40.2857Z" fill="#D0D0D0"/>
<path d="M118 40.2857C118 41.7058 116.852 42.8571 115.435 42.8571C114.018 42.8571 112.87 41.7058 112.87 40.2857C112.87 38.8655 114.018 37.7142 115.435 37.7142C116.852 37.7142 118 38.8655 118 40.2857Z" fill="#08BDC9"/>
<path d="M118 40.2857C118 41.7058 116.852 42.8571 115.435 42.8571C114.018 42.8571 112.87 41.7058 112.87 40.2857C112.87 38.8655 114.018 37.7142 115.435 37.7142C116.852 37.7142 118 38.8655 118 40.2857Z" fill="url(#paint7_linear_20_314)"/>
<path d="M118 40.2857C118 41.7058 116.852 42.8571 115.435 42.8571C114.018 42.8571 112.87 41.7058 112.87 40.2857C112.87 38.8655 114.018 37.7142 115.435 37.7142C116.852 37.7142 118 38.8655 118 40.2857Z" fill="#F6F6F6"/>
<path d="M5.13041 78C5.13041 79.4201 3.98193 80.5714 2.56521 80.5714C1.14848 80.5714 0 79.4201 0 78C0 76.5798 1.14848 75.4285 2.56521 75.4285C3.98193 75.4285 5.13041 76.5798 5.13041 78Z" fill="#D0D0D0"/>
<path d="M5.13041 78C5.13041 79.4201 3.98193 80.5714 2.56521 80.5714C1.14848 80.5714 0 79.4201 0 78C0 76.5798 1.14848 75.4285 2.56521 75.4285C3.98193 75.4285 5.13041 76.5798 5.13041 78Z" fill="#08BDC9"/>
<path d="M5.13041 78C5.13041 79.4201 3.98193 80.5714 2.56521 80.5714C1.14848 80.5714 0 79.4201 0 78C0 76.5798 1.14848 75.4285 2.56521 75.4285C3.98193 75.4285 5.13041 76.5798 5.13041 78Z" fill="url(#paint8_linear_20_314)"/>
<path d="M5.13041 78C5.13041 79.4201 3.98193 80.5714 2.56521 80.5714C1.14848 80.5714 0 79.4201 0 78C0 76.5798 1.14848 75.4285 2.56521 75.4285C3.98193 75.4285 5.13041 76.5798 5.13041 78Z" fill="#F6F6F6"/>
<path d="M42.7538 78C42.7538 79.4201 41.6053 80.5714 40.1886 80.5714C38.7719 80.5714 37.6234 79.4201 37.6234 78C37.6234 76.5798 38.7719 75.4285 40.1886 75.4285C41.6053 75.4285 42.7538 76.5798 42.7538 78Z" fill="#D0D0D0"/>
<path d="M42.7538 78C42.7538 79.4201 41.6053 80.5714 40.1886 80.5714C38.7719 80.5714 37.6234 79.4201 37.6234 78C37.6234 76.5798 38.7719 75.4285 40.1886 75.4285C41.6053 75.4285 42.7538 76.5798 42.7538 78Z" fill="#08BDC9"/>
<path d="M42.7538 78C42.7538 79.4201 41.6053 80.5714 40.1886 80.5714C38.7719 80.5714 37.6234 79.4201 37.6234 78C37.6234 76.5798 38.7719 75.4285 40.1886 75.4285C41.6053 75.4285 42.7538 76.5798 42.7538 78Z" fill="url(#paint9_linear_20_314)"/>
<path d="M42.7538 78C42.7538 79.4201 41.6053 80.5714 40.1886 80.5714C38.7719 80.5714 37.6234 79.4201 37.6234 78C37.6234 76.5798 38.7719 75.4285 40.1886 75.4285C41.6053 75.4285 42.7538 76.5798 42.7538 78Z" fill="#F6F6F6"/>
<path d="M80.3766 78C80.3766 79.4201 79.2281 80.5714 77.8114 80.5714C76.3947 80.5714 75.2462 79.4201 75.2462 78C75.2462 76.5798 76.3947 75.4285 77.8114 75.4285C79.2281 75.4285 80.3766 76.5798 80.3766 78Z" fill="#D0D0D0"/>
<path d="M80.3766 78C80.3766 79.4201 79.2281 80.5714 77.8114 80.5714C76.3947 80.5714 75.2462 79.4201 75.2462 78C75.2462 76.5798 76.3947 75.4285 77.8114 75.4285C79.2281 75.4285 80.3766 76.5798 80.3766 78Z" fill="#08BDC9"/>
<path d="M80.3766 78C80.3766 79.4201 79.2281 80.5714 77.8114 80.5714C76.3947 80.5714 75.2462 79.4201 75.2462 78C75.2462 76.5798 76.3947 75.4285 77.8114 75.4285C79.2281 75.4285 80.3766 76.5798 80.3766 78Z" fill="url(#paint10_linear_20_314)"/>
<path d="M80.3766 78C80.3766 79.4201 79.2281 80.5714 77.8114 80.5714C76.3947 80.5714 75.2462 79.4201 75.2462 78C75.2462 76.5798 76.3947 75.4285 77.8114 75.4285C79.2281 75.4285 80.3766 76.5798 80.3766 78Z" fill="#F6F6F6"/>
<path d="M118 78C118 79.4201 116.852 80.5714 115.435 80.5714C114.018 80.5714 112.87 79.4201 112.87 78C112.87 76.5798 114.018 75.4285 115.435 75.4285C116.852 75.4285 118 76.5798 118 78Z" fill="#D0D0D0"/>
<path d="M118 78C118 79.4201 116.852 80.5714 115.435 80.5714C114.018 80.5714 112.87 79.4201 112.87 78C112.87 76.5798 114.018 75.4285 115.435 75.4285C116.852 75.4285 118 76.5798 118 78Z" fill="#08BDC9"/>
<path d="M118 78C118 79.4201 116.852 80.5714 115.435 80.5714C114.018 80.5714 112.87 79.4201 112.87 78C112.87 76.5798 114.018 75.4285 115.435 75.4285C116.852 75.4285 118 76.5798 118 78Z" fill="url(#paint11_linear_20_314)"/>
<path d="M118 78C118 79.4201 116.852 80.5714 115.435 80.5714C114.018 80.5714 112.87 79.4201 112.87 78C112.87 76.5798 114.018 75.4285 115.435 75.4285C116.852 75.4285 118 76.5798 118 78Z" fill="#F6F6F6"/>
<path d="M5.13041 115.714C5.13041 117.134 3.98193 118.286 2.56521 118.286C1.14848 118.286 0 117.134 0 115.714C0 114.294 1.14848 113.143 2.56521 113.143C3.98193 113.143 5.13041 114.294 5.13041 115.714Z" fill="#17AEE0"/>
<path d="M42.7538 115.714C42.7538 117.134 41.6053 118.286 40.1886 118.286C38.7719 118.286 37.6234 117.134 37.6234 115.714C37.6234 114.294 38.7719 113.143 40.1886 113.143C41.6053 113.143 42.7538 114.294 42.7538 115.714Z" fill="#17AEE0"/>
<path d="M80.3766 115.714C80.3766 117.134 79.2281 118.286 77.8114 118.286C76.3947 118.286 75.2462 117.134 75.2462 115.714C75.2462 114.294 76.3947 113.143 77.8114 113.143C79.2281 113.143 80.3766 114.294 80.3766 115.714Z" fill="#17AEE0"/>
<path d="M118 115.714C118 117.134 116.852 118.286 115.435 118.286C114.018 118.286 112.87 117.134 112.87 115.714C112.87 114.294 114.018 113.143 115.435 113.143C116.852 113.143 118 114.294 118 115.714Z" fill="#17AEE0"/>
<path d="M5.13041 153.429C5.13041 154.849 3.98193 156 2.56521 156C1.14848 156 0 154.849 0 153.429C0 152.008 1.14848 150.857 2.56521 150.857C3.98193 150.857 5.13041 152.008 5.13041 153.429Z" fill="#17AEE0"/>
<path d="M42.7538 153.429C42.7538 154.849 41.6053 156 40.1886 156C38.7719 156 37.6234 154.849 37.6234 153.429C37.6234 152.008 38.7719 150.857 40.1886 150.857C41.6053 150.857 42.7538 152.008 42.7538 153.429Z" fill="#17AEE0"/>
<path d="M80.3766 153.429C80.3766 154.849 79.2281 156 77.8114 156C76.3947 156 75.2462 154.849 75.2462 153.429C75.2462 152.008 76.3947 150.857 77.8114 150.857C79.2281 150.857 80.3766 152.008 80.3766 153.429Z" fill="#17AEE0"/>
<path d="M118 153.429C118 154.849 116.852 156 115.435 156C114.018 156 112.87 154.849 112.87 153.429C112.87 152.008 114.018 150.857 115.435 150.857C116.852 150.857 118 152.008 118 153.429Z" fill="#17AEE0"/>
<defs>
<linearGradient id="paint0_linear_20_314" x1="46.411" y1="228.913" x2="196.476" y2="137.201" gradientUnits="userSpaceOnUse">
<stop stop-color="#9358F7"/>
<stop offset="0.259732" stop-color="#7B78F2"/>
<stop offset="0.500607" stop-color="#6197EE"/>
<stop offset="0.766547" stop-color="#45B5E9"/>
<stop offset="1" stop-color="#10D7E2"/>
</linearGradient>
<linearGradient id="paint1_linear_20_314" x1="46.411" y1="228.913" x2="196.476" y2="137.201" gradientUnits="userSpaceOnUse">
<stop stop-color="#9358F7"/>
<stop offset="0.259732" stop-color="#7B78F2"/>
<stop offset="0.500607" stop-color="#6197EE"/>
<stop offset="0.766547" stop-color="#45B5E9"/>
<stop offset="1" stop-color="#10D7E2"/>
</linearGradient>
<linearGradient id="paint2_linear_20_314" x1="46.411" y1="228.913" x2="196.476" y2="137.201" gradientUnits="userSpaceOnUse">
<stop stop-color="#9358F7"/>
<stop offset="0.259732" stop-color="#7B78F2"/>
<stop offset="0.500607" stop-color="#6197EE"/>
<stop offset="0.766547" stop-color="#45B5E9"/>
<stop offset="1" stop-color="#10D7E2"/>
</linearGradient>
<linearGradient id="paint3_linear_20_314" x1="46.411" y1="228.913" x2="196.476" y2="137.201" gradientUnits="userSpaceOnUse">
<stop stop-color="#9358F7"/>
<stop offset="0.259732" stop-color="#7B78F2"/>
<stop offset="0.500607" stop-color="#6197EE"/>
<stop offset="0.766547" stop-color="#45B5E9"/>
<stop offset="1" stop-color="#10D7E2"/>
</linearGradient>
<linearGradient id="paint4_linear_20_314" x1="46.411" y1="228.913" x2="196.476" y2="137.201" gradientUnits="userSpaceOnUse">
<stop stop-color="#9358F7"/>
<stop offset="0.259732" stop-color="#7B78F2"/>
<stop offset="0.500607" stop-color="#6197EE"/>
<stop offset="0.766547" stop-color="#45B5E9"/>
<stop offset="1" stop-color="#10D7E2"/>
</linearGradient>
<linearGradient id="paint5_linear_20_314" x1="46.411" y1="228.913" x2="196.476" y2="137.201" gradientUnits="userSpaceOnUse">
<stop stop-color="#9358F7"/>
<stop offset="0.259732" stop-color="#7B78F2"/>
<stop offset="0.500607" stop-color="#6197EE"/>
<stop offset="0.766547" stop-color="#45B5E9"/>
<stop offset="1" stop-color="#10D7E2"/>
</linearGradient>
<linearGradient id="paint6_linear_20_314" x1="46.411" y1="228.913" x2="196.476" y2="137.201" gradientUnits="userSpaceOnUse">
<stop stop-color="#9358F7"/>
<stop offset="0.259732" stop-color="#7B78F2"/>
<stop offset="0.500607" stop-color="#6197EE"/>
<stop offset="0.766547" stop-color="#45B5E9"/>
<stop offset="1" stop-color="#10D7E2"/>
</linearGradient>
<linearGradient id="paint7_linear_20_314" x1="46.411" y1="228.913" x2="196.476" y2="137.201" gradientUnits="userSpaceOnUse">
<stop stop-color="#9358F7"/>
<stop offset="0.259732" stop-color="#7B78F2"/>
<stop offset="0.500607" stop-color="#6197EE"/>
<stop offset="0.766547" stop-color="#45B5E9"/>
<stop offset="1" stop-color="#10D7E2"/>
</linearGradient>
<linearGradient id="paint8_linear_20_314" x1="46.411" y1="228.913" x2="196.476" y2="137.201" gradientUnits="userSpaceOnUse">
<stop stop-color="#9358F7"/>
<stop offset="0.259732" stop-color="#7B78F2"/>
<stop offset="0.500607" stop-color="#6197EE"/>
<stop offset="0.766547" stop-color="#45B5E9"/>
<stop offset="1" stop-color="#10D7E2"/>
</linearGradient>
<linearGradient id="paint9_linear_20_314" x1="46.411" y1="228.913" x2="196.476" y2="137.201" gradientUnits="userSpaceOnUse">
<stop stop-color="#9358F7"/>
<stop offset="0.259732" stop-color="#7B78F2"/>
<stop offset="0.500607" stop-color="#6197EE"/>
<stop offset="0.766547" stop-color="#45B5E9"/>
<stop offset="1" stop-color="#10D7E2"/>
</linearGradient>
<linearGradient id="paint10_linear_20_314" x1="46.411" y1="228.913" x2="196.476" y2="137.201" gradientUnits="userSpaceOnUse">
<stop stop-color="#9358F7"/>
<stop offset="0.259732" stop-color="#7B78F2"/>
<stop offset="0.500607" stop-color="#6197EE"/>
<stop offset="0.766547" stop-color="#45B5E9"/>
<stop offset="1" stop-color="#10D7E2"/>
</linearGradient>
<linearGradient id="paint11_linear_20_314" x1="46.411" y1="228.913" x2="196.476" y2="137.201" gradientUnits="userSpaceOnUse">
<stop stop-color="#9358F7"/>
<stop offset="0.259732" stop-color="#7B78F2"/>
<stop offset="0.500607" stop-color="#6197EE"/>
<stop offset="0.766547" stop-color="#45B5E9"/>
<stop offset="1" stop-color="#10D7E2"/>
</linearGradient>
</defs>
</svg>
