<svg width="1251" height="736" viewBox="0 0 1251 736" fill="none" xmlns="http://www.w3.org/2000/svg">
<path d="M394.07 353.93V387.07H360.93L344 404H411V337L394.07 353.93Z" fill="#F8D71A"/>
<path d="M394.07 353.93V387.07H360.93L344 404H411V337L394.07 353.93Z" fill="#3DBDE8"/>
<path d="M614.93 350.93H648.07V384.07L665 401V334H598L614.93 350.93Z" fill="#F8D71A"/>
<path d="M614.93 350.93H648.07V384.07L665 401V334H598L614.93 350.93Z" fill="#3DBDE8"/>
<path d="M902.07 353.93V387.07H868.93L852 404H919V337L902.07 353.93Z" fill="#F8D71A"/>
<path d="M902.07 353.93V387.07H868.93L852 404H919V337L902.07 353.93Z" fill="#3DBDE8"/>
<path d="M1039.77 273.432L1121.45 355.031C1121.83 355.413 1122.35 355.627 1122.89 355.627H1152.25V385.011C1152.25 385.552 1152.47 386.07 1152.85 386.453L1234.25 468.078C1241.79 475.625 1245.94 485.659 1245.94 496.333C1245.94 507.006 1241.79 517.04 1234.25 524.587L1039.77 719.234C1024.2 734.813 998.876 734.813 983.311 719.234L788.834 524.587C773.268 509.008 773.268 483.658 788.833 468.079L869.947 387.022H900.415C901.541 387.022 902.454 386.108 902.454 384.981V354.486L983.311 273.431C1000.47 256.259 1000.47 228.319 983.311 211.148L788.834 16.5009C780.523 8.18229 769.474 3.60172 757.72 3.60172C745.966 3.60172 734.916 8.18268 726.606 16.5009L532.129 211.148C523.818 219.466 519.241 230.525 519.241 242.289C519.241 254.053 523.818 265.113 532.13 273.432L613.754 355.102C614.136 355.485 614.655 355.7 615.196 355.7H644.41V384.939C644.41 385.481 644.624 386 645.006 386.383L726.606 468.078C742.172 483.658 742.172 509.008 726.606 524.588L532.13 719.235C516.564 734.814 491.236 734.814 475.669 719.235L281.193 524.588C273.653 517.04 269.5 507.006 269.5 496.333C269.5 485.659 273.653 475.626 281.193 468.078L362.04 387.16H392.783C393.909 387.16 394.822 386.246 394.822 385.119V354.349L475.67 273.432C483.981 265.113 488.558 254.053 488.558 242.29C488.558 230.526 483.981 219.467 475.67 211.148L278.594 13.8992C270.283 5.58096 259.233 1 247.479 1C235.726 1 224.676 5.58096 216.365 13.8992L21.8883 208.546C13.5773 216.864 9 227.924 9 239.688C9 251.452 13.5773 262.511 21.8883 270.829L213.505 462.614C214.302 463.411 215.593 463.411 216.39 462.614C217.186 461.817 217.186 460.524 216.39 459.727L24.7726 267.943C17.2322 260.395 13.0792 250.361 13.0792 239.688C13.0792 229.014 17.2318 218.98 24.7726 211.433L219.249 16.786C226.79 9.23898 236.815 5.08282 247.479 5.08282C258.143 5.08282 268.169 9.23859 275.709 16.786L472.785 214.034C480.326 221.582 484.479 231.616 484.479 242.289C484.479 252.963 480.326 262.997 472.785 270.544L391.341 352.06C390.958 352.443 390.743 352.962 390.743 353.504V383.078H361.195C360.654 383.078 360.136 383.293 359.753 383.676L278.309 465.192C269.997 473.51 265.42 484.569 265.42 496.333C265.42 508.097 269.997 519.156 278.309 527.474L472.785 722.121C489.942 739.293 517.857 739.293 535.014 722.121L729.49 527.474C746.647 510.303 746.647 482.363 729.491 465.192L648.488 384.094V353.659C648.488 352.531 647.575 351.617 646.449 351.617H616.04L535.014 270.545C527.473 262.997 523.321 252.963 523.321 242.29C523.321 231.616 527.473 221.582 535.014 214.035L729.49 19.3878C737.031 11.8411 747.057 7.68454 757.72 7.68454C768.385 7.68454 778.41 11.8411 785.951 19.3878L980.428 214.035C995.993 229.615 995.993 254.965 980.426 270.545L898.973 352.199C898.591 352.582 898.376 353.1 898.376 353.641V382.94H869.103C868.563 382.94 868.045 383.154 867.662 383.537L785.951 465.192C768.794 482.363 768.794 510.303 785.951 527.474L980.428 722.121C989.005 730.707 1000.27 735 1011.54 735C1022.81 735 1034.08 730.707 1042.66 722.121L1237.13 527.474C1254.29 510.303 1254.29 482.363 1237.13 465.193L1156.33 384.167V353.586C1156.33 352.459 1155.42 351.545 1154.29 351.545H1123.74L1042.66 270.545" stroke="#3DBDE8"/>
<path d="M41.184 123.995V224.795H22.464V139.691H1.152V123.995H41.184Z" fill="#9EABAF"/>
<path d="M564.248 165.611C573.56 166.763 580.664 169.931 585.56 175.115C590.456 180.299 592.904 186.779 592.904 194.555C592.904 200.411 591.416 205.739 588.44 210.539C585.464 215.339 580.952 219.179 574.904 222.059C568.952 224.843 561.656 226.235 553.016 226.235C545.816 226.235 538.856 225.227 532.136 223.211C525.512 221.099 519.848 218.219 515.144 214.571L523.208 200.027C526.856 203.099 531.272 205.547 536.456 207.371C541.736 209.099 547.16 209.963 552.728 209.963C559.352 209.963 564.536 208.619 568.28 205.931C572.12 203.147 574.04 199.403 574.04 194.699C574.04 189.995 572.216 186.347 568.568 183.755C565.016 181.067 559.544 179.723 552.152 179.723H542.936V166.907L565.832 139.691H520.04V123.995H588.728V136.523L564.248 165.611Z" fill="#9EABAF"/>
<path d="M849.192 508.899H831.336V531.795H813.192V508.899H757.896V495.939L807.576 430.995H827.592L780.792 493.059H813.768V472.755H831.336V493.059H849.192V508.899Z" fill="#9EABAF"/>
<path d="M314.344 515.955V531.795H240.04V519.267L280.072 481.251C284.584 476.931 287.608 473.187 289.144 470.019C290.776 466.755 291.592 463.539 291.592 460.371C291.592 455.667 290.008 452.067 286.84 449.571C283.672 447.075 279.016 445.827 272.872 445.827C262.6 445.827 254.728 449.331 249.256 456.339L236.152 446.259C240.088 440.979 245.368 436.899 251.992 434.019C258.712 431.043 266.2 429.555 274.456 429.555C285.4 429.555 294.136 432.147 300.664 437.331C307.192 442.515 310.456 449.571 310.456 458.499C310.456 463.971 309.304 469.107 307 473.907C304.696 478.707 300.28 484.179 293.752 490.323L266.824 515.955H314.344Z" fill="#9EABAF"/>
</svg>
