<svg width="1251" height="736" viewBox="0 0 1251 736" fill="none" xmlns="http://www.w3.org/2000/svg">
<path d="M394.07 353.93V387.07H360.93L344 404H411V337L394.07 353.93Z" fill="#F8D71A"/>
<path d="M394.07 353.93V387.07H360.93L344 404H411V337L394.07 353.93Z" fill="#3DBDE8"/>
<path d="M614.93 350.93H648.07V384.07L665 401V334H598L614.93 350.93Z" fill="#F8D71A"/>
<path d="M614.93 350.93H648.07V384.07L665 401V334H598L614.93 350.93Z" fill="#3DBDE8"/>
<path d="M902.07 353.93V387.07H868.93L852 404H919V337L902.07 353.93Z" fill="#F8D71A"/>
<path d="M902.07 353.93V387.07H868.93L852 404H919V337L902.07 353.93Z" fill="#3DBDE8"/>
<path d="M1039.77 273.432L1121.45 355.031C1121.83 355.413 1122.35 355.627 1122.89 355.627H1152.25V385.011C1152.25 385.552 1152.47 386.07 1152.85 386.453L1234.25 468.078C1241.79 475.625 1245.94 485.659 1245.94 496.333C1245.94 507.006 1241.79 517.04 1234.25 524.587L1039.77 719.234C1024.2 734.813 998.876 734.813 983.311 719.234L788.834 524.587C773.268 509.008 773.268 483.658 788.833 468.079L869.947 387.022H900.415C901.541 387.022 902.454 386.108 902.454 384.981V354.486L983.311 273.431C1000.47 256.259 1000.47 228.319 983.311 211.148L788.834 16.5009C780.523 8.18229 769.474 3.60172 757.72 3.60172C745.966 3.60172 734.916 8.18268 726.606 16.5009L532.129 211.148C523.818 219.466 519.241 230.525 519.241 242.289C519.241 254.053 523.818 265.113 532.13 273.432L613.754 355.102C614.136 355.485 614.655 355.7 615.196 355.7H644.41V384.939C644.41 385.481 644.624 386 645.006 386.383L726.606 468.078C742.172 483.658 742.172 509.008 726.606 524.588L532.13 719.235C516.564 734.814 491.236 734.814 475.669 719.235L281.193 524.588C273.653 517.04 269.5 507.006 269.5 496.333C269.5 485.659 273.653 475.626 281.193 468.078L362.04 387.16H392.783C393.909 387.16 394.822 386.246 394.822 385.119V354.349L475.67 273.432C483.981 265.113 488.558 254.053 488.558 242.29C488.558 230.526 483.981 219.467 475.67 211.148L278.594 13.8992C270.283 5.58096 259.233 1 247.479 1C235.726 1 224.676 5.58096 216.365 13.8992L21.8883 208.546C13.5773 216.864 9 227.924 9 239.688C9 251.452 13.5773 262.511 21.8883 270.829L213.505 462.614C214.302 463.411 215.593 463.411 216.39 462.614C217.186 461.817 217.186 460.524 216.39 459.727L24.7726 267.943C17.2322 260.395 13.0792 250.361 13.0792 239.688C13.0792 229.014 17.2318 218.98 24.7726 211.433L219.249 16.786C226.79 9.23898 236.815 5.08282 247.479 5.08282C258.143 5.08282 268.169 9.23859 275.709 16.786L472.785 214.034C480.326 221.582 484.479 231.616 484.479 242.289C484.479 252.963 480.326 262.997 472.785 270.544L391.341 352.06C390.958 352.443 390.743 352.962 390.743 353.504V383.078H361.195C360.654 383.078 360.136 383.293 359.753 383.676L278.309 465.192C269.997 473.51 265.42 484.569 265.42 496.333C265.42 508.097 269.997 519.156 278.309 527.474L472.785 722.121C489.942 739.293 517.857 739.293 535.014 722.121L729.49 527.474C746.647 510.303 746.647 482.363 729.491 465.192L648.488 384.094V353.659C648.488 352.531 647.575 351.617 646.449 351.617H616.04L535.014 270.545C527.473 262.997 523.321 252.963 523.321 242.29C523.321 231.616 527.473 221.582 535.014 214.035L729.49 19.3878C737.031 11.8411 747.057 7.68454 757.72 7.68454C768.385 7.68454 778.41 11.8411 785.951 19.3878L980.428 214.035C995.993 229.615 995.993 254.965 980.426 270.545L898.973 352.199C898.591 352.582 898.376 353.1 898.376 353.641V382.94H869.103C868.563 382.94 868.045 383.154 867.662 383.537L785.951 465.192C768.794 482.363 768.794 510.303 785.951 527.474L980.428 722.121C989.005 730.707 1000.27 735 1011.54 735C1022.81 735 1034.08 730.707 1042.66 722.121L1237.13 527.474C1254.29 510.303 1254.29 482.363 1237.13 465.193L1156.33 384.167V353.586C1156.33 352.459 1155.42 351.545 1154.29 351.545H1123.74L1042.66 270.545" stroke="#3DBDE8"/>
<path d="M39.744 226.235C32.64 226.235 25.68 225.227 18.864 223.211C12.144 221.099 6.48 218.219 1.872 214.571L9.792 200.027C13.44 203.003 17.856 205.403 23.04 207.227C28.32 209.051 33.792 209.963 39.456 209.963C46.08 209.963 51.264 208.571 55.008 205.787C58.848 203.003 60.768 199.259 60.768 194.555C60.768 191.387 59.952 188.603 58.32 186.203C56.784 183.803 54 181.979 49.968 180.731C46.032 179.483 40.608 178.859 33.696 178.859H9.36L14.544 123.995H73.728V139.691H21.456L31.248 130.763L27.36 171.803L17.568 163.019H37.872C47.856 163.019 55.872 164.363 61.92 167.051C68.064 169.643 72.528 173.291 75.312 177.995C78.192 182.603 79.632 187.883 79.632 193.835C79.632 199.691 78.192 205.067 75.312 209.963C72.432 214.859 68.016 218.795 62.064 221.771C56.208 224.747 48.768 226.235 39.744 226.235Z" fill="#9EABAF"/>
<path d="M538.184 224.795L579.8 131.483L584.696 139.835H527.528L536.456 130.763V156.971H519.032V123.995H597.368V136.523L558.2 224.795H538.184Z" fill="#9EABAF"/>
<path d="M799.8 533.235C791.448 533.235 784.2 531.987 778.056 529.491C771.912 526.995 767.16 523.491 763.8 518.979C760.44 514.371 758.76 508.995 758.76 502.851C758.76 496.707 760.392 491.523 763.656 487.299C766.92 483.075 771.624 479.859 777.768 477.651C783.912 475.443 791.256 474.339 799.8 474.339C808.344 474.339 815.688 475.443 821.832 477.651C828.072 479.859 832.824 483.123 836.088 487.443C839.448 491.667 841.128 496.803 841.128 502.851C841.128 508.995 839.4 514.371 835.944 518.979C832.584 523.491 827.784 526.995 821.544 529.491C815.4 531.987 808.152 533.235 799.8 533.235ZM799.8 518.547C806.712 518.547 812.184 517.107 816.216 514.227C820.248 511.347 822.264 507.363 822.264 502.275C822.264 497.283 820.248 493.347 816.216 490.467C812.184 487.587 806.712 486.147 799.8 486.147C792.888 486.147 787.464 487.587 783.528 490.467C779.592 493.347 777.624 497.283 777.624 502.275C777.624 507.363 779.592 511.347 783.528 514.227C787.464 517.107 792.888 518.547 799.8 518.547ZM799.8 484.131C792.024 484.131 785.352 483.123 779.784 481.107C774.216 478.995 769.896 475.971 766.824 472.035C763.848 468.003 762.36 463.203 762.36 457.635C762.36 451.875 763.896 446.931 766.968 442.803C770.136 438.579 774.552 435.315 780.216 433.011C785.88 430.707 792.408 429.555 799.8 429.555C807.288 429.555 813.864 430.707 819.528 433.011C825.192 435.315 829.608 438.579 832.776 442.803C835.944 446.931 837.528 451.875 837.528 457.635C837.528 463.203 835.992 468.003 832.92 472.035C829.944 475.971 825.624 478.995 819.96 481.107C814.296 483.123 807.576 484.131 799.8 484.131ZM799.8 472.611C805.752 472.611 810.456 471.363 813.912 468.867C817.368 466.275 819.096 462.819 819.096 458.499C819.096 453.987 817.32 450.483 813.768 447.987C810.216 445.491 805.56 444.243 799.8 444.243C794.04 444.243 789.432 445.491 785.976 447.987C782.52 450.483 780.792 453.987 780.792 458.499C780.792 462.819 782.472 466.275 785.832 468.867C789.288 471.363 793.944 472.611 799.8 472.611Z" fill="#9EABAF"/>
<path d="M284.968 533.235C275.848 533.235 268.024 531.315 261.496 527.475C254.968 523.539 249.976 517.875 246.52 510.483C243.064 503.091 241.336 493.971 241.336 483.123C241.336 471.603 243.4 461.859 247.528 453.891C251.752 445.923 257.56 439.875 264.952 435.747C272.44 431.619 281.032 429.555 290.728 429.555C295.816 429.555 300.664 430.083 305.272 431.139C309.976 432.195 313.96 433.827 317.224 436.035L310.312 450.147C307.528 448.323 304.504 447.075 301.24 446.403C298.072 445.635 294.712 445.251 291.16 445.251C281.656 445.251 274.12 448.179 268.552 454.035C262.984 459.891 260.2 468.531 260.2 479.955C260.2 481.779 260.248 483.939 260.344 486.435C260.44 488.835 260.776 491.283 261.352 493.779L255.592 487.443C257.32 483.507 259.672 480.243 262.648 477.651C265.72 474.963 269.32 472.947 273.448 471.603C277.672 470.259 282.232 469.587 287.128 469.587C293.752 469.587 299.656 470.883 304.84 473.475C310.024 475.971 314.152 479.571 317.224 484.275C320.296 488.883 321.832 494.307 321.832 500.547C321.832 507.171 320.2 512.931 316.936 517.827C313.672 522.723 309.256 526.515 303.688 529.203C298.12 531.891 291.88 533.235 284.968 533.235ZM283.96 518.547C287.8 518.547 291.208 517.875 294.184 516.531C297.16 515.091 299.464 513.075 301.096 510.483C302.824 507.891 303.688 504.867 303.688 501.411C303.688 496.131 301.864 491.955 298.216 488.883C294.568 485.811 289.672 484.275 283.528 484.275C279.496 484.275 275.944 485.043 272.872 486.579C269.896 488.019 267.496 490.035 265.672 492.627C263.944 495.219 263.08 498.195 263.08 501.555C263.08 504.627 263.896 507.459 265.528 510.051C267.16 512.643 269.512 514.707 272.584 516.243C275.752 517.779 279.544 518.547 283.96 518.547Z" fill="#9EABAF"/>
</svg>
