<svg width="279" height="148" viewBox="0 0 279 148" fill="none" xmlns="http://www.w3.org/2000/svg">
<g clip-path="url(#clip0_0_169)">
<path d="M0 0.300049H28.1V85H71.3V111.9H0V0.300049Z" fill="white"/>
<path d="M208.602 0V28.2C208.602 28.2 208.602 28.2 199.802 28.2C190.002 28.2 181.502 37.9 181.502 46.3C181.502 51.3 181.502 85 181.502 85H208.502V112.1H181.402V147.7H153.202V111.9H110.102V85.1H153.302C153.302 85.1 153.502 61.1 153.502 45.5C153.502 12.3 179.802 0 196.802 0C205.502 0.1 208.602 0 208.602 0Z" fill="white"/>
<path d="M251.299 100.8C251.299 110.1 258.699 119.7 272.199 119.7C278.399 119.7 278.399 119.7 278.399 119.7V147.7C278.399 147.7 278.399 147.7 269.399 147.7C247.299 147.7 223.199 134.8 223.199 99.8001C223.199 67.0001 223.199 0.100098 223.199 0.100098H251.299V43.4001H278.299V70.4001H251.299" fill="white"/>
<path d="M90.7008 0.100098C123.401 0.100098 138.301 21.6001 138.301 47.7001C138.301 69.8001 138.301 69.8001 138.301 69.8001H110.101C110.101 69.8001 110.101 68.6001 110.101 46.4001C110.101 38.2001 102.601 28.1001 90.4008 28.1001C81.1008 28.1001 71.3008 35.8001 71.3008 46.5001C71.3008 57.2001 71.3008 69.8001 71.3008 69.8001H43.3008C43.3008 69.8001 43.3008 66.0001 43.3008 46.3001C43.4008 22.6001 57.3008 0.100098 90.7008 0.100098Z" fill="#3DBDE8"/>
<path d="M101.199 73.3C104.299 73.3 105.899 75.6 105.899 78C105.899 79.9 104.099 82.4 101.399 82.4C99.0992 82.4 96.6992 80.5 96.6992 77.9C96.6992 75.3 98.7992 73.3 101.199 73.3Z" fill="#3DBDE8"/>
<path d="M14 140C14 140.7 13.9 141.4 13.8 142.1C13.7 142.8 13.5 143.4 13.2 144C12.9 144.6 12.5 145.2 12 145.7C11.4 146.3 10.6 146.8 9.7 147.1C8.8 147.4 7.9 147.5 6.9 147.5H0V128.3H6.9C7.9 128.3 8.8 128.4 9.7 128.7C10.6 129 11.3 129.5 12 130.1C12.5 130.6 12.9 131.2 13.2 131.8C13.5 132.4 13.7 133 13.8 133.7C13.9 134.3 14 135 14 135.7C14 136.4 14 137.1 14 137.8C14 138.5 14 139.3 14 140ZM10.2 135.9C10.2 135.4 10.1 134.9 10.1 134.5C10 134.1 10 133.8 9.9 133.5C9.8 133.2 9.6 133 9.5 132.8C9.2 132.4 8.8 132.1 8.3 131.9C7.8 131.7 7.3 131.6 6.7 131.6H3.8V144.1H6.6C7.2 144.1 7.8 144 8.2 143.8C8.6 143.6 9 143.3 9.4 142.9C9.7 142.5 10 141.9 10.1 141.1C10.2 140.3 10.2 139.2 10.2 137.8C10.2 137.1 10.2 136.5 10.2 135.9Z" fill="#3DBDE8"/>
<path d="M27 147.5V128.3H39.7V131.6H30.8V136.1H38.4V139.4H30.8V144.1H39.7V147.4H27V147.5Z" fill="#3DBDE8"/>
<path d="M64.4008 144.3C64.0008 145 63.5008 145.6 62.9008 146.1C62.3008 146.6 61.5008 147 60.6008 147.2C59.7008 147.5 58.8008 147.6 57.8008 147.6C56.3008 147.6 55.0008 147.4 53.9008 147C52.8008 146.6 51.7008 146 50.8008 145L53.2008 142.6C53.8008 143.2 54.5008 143.6 55.3008 143.9C56.1008 144.1 56.9008 144.3 57.8008 144.3C58.9008 144.3 59.8008 144.1 60.3008 143.7C60.9008 143.3 61.2008 142.7 61.2008 141.9C61.2008 141.2 61.0008 140.7 60.6008 140.3C60.4008 140.1 60.2008 140 59.9008 139.9C59.7008 139.8 59.3008 139.7 58.9008 139.6L56.6008 139.3C55.0008 139.1 53.7008 138.5 52.9008 137.7C52.0008 136.8 51.5008 135.5 51.5008 133.9C51.5008 133 51.7008 132.2 52.0008 131.5C52.3008 130.8 52.7008 130.2 53.3008 129.7C53.9008 129.2 54.6008 128.8 55.4008 128.5C56.2008 128.2 57.2008 128.1 58.2008 128.1C59.5008 128.1 60.7008 128.3 61.7008 128.6C62.7008 128.9 63.6008 129.5 64.4008 130.3L62.0008 132.6C61.4008 132 60.7008 131.7 60.0008 131.5C59.3008 131.3 58.6008 131.3 58.0008 131.3C57.0008 131.3 56.2008 131.5 55.8008 132C55.3008 132.5 55.1008 133 55.1008 133.7C55.1008 134 55.1008 134.2 55.2008 134.4C55.3008 134.6 55.4008 134.9 55.6008 135C55.8008 135.2 56.0008 135.3 56.3008 135.5C56.6008 135.6 56.9008 135.7 57.3008 135.8L59.6008 136.1C60.5008 136.2 61.2008 136.4 61.8008 136.7C62.4008 137 62.9008 137.3 63.3008 137.6C63.8008 138.1 64.2008 138.7 64.4008 139.4C64.6008 140.1 64.8008 140.9 64.8008 141.7C64.9008 142.8 64.7008 143.6 64.4008 144.3Z" fill="#3DBDE8"/>
<path d="M77.6016 147.5V128.3H81.4016V147.5H77.6016Z" fill="#3DBDE8"/>
<path d="M108.298 143.1C107.998 144 107.498 144.8 106.898 145.5C106.098 146.3 105.298 146.9 104.398 147.2C103.498 147.5 102.498 147.7 101.498 147.7C100.398 147.7 99.4984 147.5 98.5984 147.2C97.6984 146.8 96.9984 146.3 96.2984 145.6C95.7984 145.1 95.3984 144.6 95.1984 144C94.9984 143.4 94.7984 142.9 94.5984 142.2C94.3984 141.5 94.3984 140.9 94.3984 140.2C94.3984 139.5 94.3984 138.7 94.3984 137.9C94.3984 137.1 94.3984 136.3 94.3984 135.6C94.3984 134.9 94.4984 134.2 94.5984 133.6C94.6984 133 94.8984 132.4 95.1984 131.8C95.4984 131.3 95.7984 130.7 96.2984 130.2C96.9984 129.5 97.6984 129 98.5984 128.6C99.4984 128.2 100.398 128.1 101.498 128.1C102.598 128.1 103.598 128.3 104.398 128.6C105.198 128.9 105.998 129.4 106.598 130C107.198 130.6 107.698 131.2 107.998 132C108.298 132.8 108.598 133.5 108.698 134.3H104.898C104.698 133.4 104.298 132.7 103.698 132.2C103.098 131.7 102.398 131.5 101.398 131.5C100.898 131.5 100.398 131.6 99.9984 131.8C99.5984 132 99.2984 132.2 98.9984 132.5C98.7984 132.7 98.6984 132.9 98.5984 133.2C98.4984 133.5 98.3984 133.8 98.2984 134.2C98.1984 134.6 98.1984 135.1 98.1984 135.7C98.1984 136.3 98.1984 137.1 98.1984 138C98.1984 138.9 98.1984 139.7 98.1984 140.3C98.1984 140.9 98.2984 141.4 98.2984 141.8C98.3984 142.2 98.4984 142.5 98.5984 142.8C98.6984 143.1 98.8984 143.3 98.9984 143.5C99.2984 143.8 99.5984 144 99.9984 144.2C100.398 144.4 100.898 144.5 101.398 144.5C101.998 144.5 102.498 144.4 102.898 144.2C103.298 144 103.698 143.7 103.998 143.4C104.298 143 104.498 142.6 104.698 142.2C104.798 141.8 104.898 141.3 104.898 140.8V140H101.398V136.9H108.698V139.7C108.698 141 108.598 142.2 108.298 143.1Z" fill="#3DBDE8"/>
<path d="M133.099 147.5L125.499 135.7V147.5H121.699V128.3H124.999L132.599 140.1V128.3H136.399V147.5H133.099Z" fill="#3DBDE8"/>
</g>
<defs>
<clipPath id="clip0_0_169">
<rect width="278.4" height="147.7" fill="white"/>
</clipPath>
</defs>
</svg>
