<svg width="183" height="265" viewBox="0 0 183 265" fill="none" xmlns="http://www.w3.org/2000/svg">
<g opacity="0.34">
<g opacity="0.56">
<path d="M36.7147 203.499C44.1165 203.635 51.0537 207.133 55.5625 213.005C60.0713 218.877 61.661 226.482 59.8816 233.668C58.1022 240.854 53.1474 246.839 46.4197 249.928C39.692 253.017 31.9237 252.875 25.3138 249.541C18.7039 246.207 13.9718 240.045 12.4571 232.798C10.9424 225.552 12.8099 218.01 17.531 212.308C22.2521 206.605 29.3129 203.363 36.7147 203.499Z" fill="#C4C4C4"/>
<path d="M36.7147 203.499C44.1165 203.635 51.0537 207.133 55.5625 213.005C60.0713 218.877 61.661 226.482 59.8816 233.668C58.1022 240.854 53.1474 246.839 46.4197 249.928C39.692 253.017 31.9237 252.875 25.3138 249.541C18.7039 246.207 13.9718 240.045 12.4571 232.798C10.9424 225.552 12.8099 218.01 17.531 212.308C22.2521 206.605 29.3129 203.363 36.7147 203.499Z" fill="#81C042"/>
</g>
<g opacity="0.3">
<path d="M160.711 154.378C165.284 154.462 169.569 156.624 172.354 160.251C175.14 163.878 176.122 168.576 175.023 173.015C173.923 177.455 170.863 181.152 166.707 183.06C162.551 184.968 157.752 184.88 153.668 182.821C149.585 180.761 146.662 176.955 145.726 172.478C144.791 168.002 145.944 163.343 148.861 159.82C151.777 156.297 156.139 154.295 160.711 154.378Z" fill="#C4C4C4"/>
<path d="M160.711 154.378C165.284 154.462 169.569 156.624 172.354 160.251C175.14 163.878 176.122 168.576 175.023 173.015C173.923 177.455 170.863 181.152 166.707 183.06C162.551 184.968 157.752 184.88 153.668 182.821C149.585 180.761 146.662 176.955 145.726 172.478C144.791 168.002 145.944 163.343 148.861 159.82C151.777 156.297 156.139 154.295 160.711 154.378Z" fill="#F6F6F6"/>
</g>
<path d="M47.5938 3.74936C49.9173 3.79197 52.0949 4.8903 53.5103 6.73344C54.9257 8.57659 55.4247 10.9639 54.8661 13.2197C54.3075 15.4754 52.7522 17.3541 50.6403 18.3238C48.5284 19.2935 46.0899 19.2488 44.015 18.2023C41.9401 17.1558 40.4547 15.2214 39.9792 12.9467C39.5037 10.672 40.0899 8.30451 41.5719 6.5145C43.0539 4.7245 45.2703 3.70675 47.5938 3.74936Z" fill="#C4C4C4"/>
<path d="M47.5938 3.74936C49.9173 3.79197 52.0949 4.8903 53.5103 6.73344C54.9257 8.57659 55.4247 10.9639 54.8661 13.2197C54.3075 15.4754 52.7522 17.3541 50.6403 18.3238C48.5284 19.2935 46.0899 19.2488 44.015 18.2023C41.9401 17.1558 40.4547 15.2214 39.9792 12.9467C39.5037 10.672 40.0899 8.30451 41.5719 6.5145C43.0539 4.7245 45.2703 3.70675 47.5938 3.74936Z" fill="#F6F6F6"/>
</g>
</svg>
