<svg width="183" height="265" viewBox="0 0 183 265" fill="none" xmlns="http://www.w3.org/2000/svg">
<g opacity="0.34">
<g opacity="0.56">
<path d="M36.7122 203.499C44.1141 203.635 51.0512 207.133 55.5601 213.005C60.0689 218.877 61.6586 226.482 59.8792 233.668C58.0998 240.854 53.145 246.839 46.4173 249.928C39.6896 253.017 31.9213 252.875 25.3114 249.541C18.7015 246.207 13.9694 240.045 12.4547 232.798C10.94 225.552 12.8075 218.01 17.5285 212.308C22.2496 206.605 29.3104 203.363 36.7122 203.499Z" fill="#C4C4C4"/>
<path d="M36.7122 203.499C44.1141 203.635 51.0512 207.133 55.5601 213.005C60.0689 218.877 61.6586 226.482 59.8792 233.668C58.0998 240.854 53.145 246.839 46.4173 249.928C39.6896 253.017 31.9213 252.875 25.3114 249.541C18.7015 246.207 13.9694 240.045 12.4547 232.798C10.94 225.552 12.8075 218.01 17.5285 212.308C22.2496 206.605 29.3104 203.363 36.7122 203.499Z" fill="#3DBDE8"/>
</g>
<g opacity="0.7">
<path d="M160.709 154.378C165.281 154.462 169.567 156.624 172.352 160.251C175.137 163.878 176.119 168.576 175.02 173.015C173.921 177.455 170.86 181.152 166.704 183.06C162.548 184.968 157.749 184.88 153.666 182.821C149.583 180.761 146.659 176.955 145.724 172.478C144.788 168.002 145.942 163.343 148.858 159.82C151.775 156.297 156.136 154.295 160.709 154.378Z" fill="#C4C4C4"/>
<path d="M160.709 154.378C165.281 154.462 169.567 156.624 172.352 160.251C175.137 163.878 176.119 168.576 175.02 173.015C173.921 177.455 170.86 181.152 166.704 183.06C162.548 184.968 157.749 184.88 153.666 182.821C149.583 180.761 146.659 176.955 145.724 172.478C144.788 168.002 145.942 163.343 148.858 159.82C151.775 156.297 156.136 154.295 160.709 154.378Z" fill="#81C042"/>
</g>
<path d="M47.5914 3.74936C49.9149 3.79197 52.0925 4.8903 53.5079 6.73344C54.9232 8.57659 55.4222 10.9639 54.8637 13.2197C54.3051 15.4754 52.7497 17.3541 50.6379 18.3238C48.526 19.2935 46.0875 19.2488 44.0126 18.2023C41.9377 17.1558 40.4522 15.2214 39.9767 12.9467C39.5013 10.672 40.0875 8.30451 41.5695 6.5145C43.0514 4.7245 45.2679 3.70675 47.5914 3.74936Z" fill="#C4C4C4"/>
<path d="M47.5914 3.74936C49.9149 3.79197 52.0925 4.8903 53.5079 6.73344C54.9232 8.57659 55.4222 10.9639 54.8637 13.2197C54.3051 15.4754 52.7497 17.3541 50.6379 18.3238C48.526 19.2935 46.0875 19.2488 44.0126 18.2023C41.9377 17.1558 40.4522 15.2214 39.9767 12.9467C39.5013 10.672 40.0875 8.30451 41.5695 6.5145C43.0514 4.7245 45.2679 3.70675 47.5914 3.74936Z" fill="#222021"/>
</g>
</svg>
